<svg width="108" height="24" viewBox="0 0 108 24" fill="none" xmlns="http://www.w3.org/2000/svg">
<g clip-path="url(#clip0_99_187)">
<path d="M105.224 21H102.881V10.6114H100.4V8.25019H102.881V5.88916H105.224V8.25019H108V10.6114H105.224V21Z" fill="#EFEFEF"/>
<path d="M90.8999 14.625C90.8999 15.8704 90.623 16.9757 90.0687 17.9409C89.5305 18.8905 88.7914 19.6377 87.8528 20.1825C86.9293 20.7274 85.8905 20.9998 84.7363 20.9998C83.582 20.9998 82.5357 20.7274 81.597 20.1825C80.6584 19.6377 79.9117 18.8905 79.3578 17.9409C78.8192 16.9757 78.5498 15.8704 78.5498 14.625C78.5498 13.3796 78.8192 12.2821 79.3578 11.3325C79.9117 10.3673 80.6584 9.61224 81.597 9.0674C82.5357 8.52256 83.582 8.25014 84.7363 8.25014C85.8905 8.25014 86.9293 8.52256 87.8528 9.0674C88.7914 9.61224 89.5305 10.3673 90.0687 11.3325C90.623 12.2821 90.8999 13.3796 90.8999 14.625ZM88.4759 14.625C88.4916 13.7999 88.3297 13.076 87.9915 12.4533C87.668 11.8151 87.222 11.3248 86.6524 10.9823C86.0829 10.6242 85.4445 10.4452 84.7363 10.4452C84.0286 10.4452 83.3821 10.6242 82.7973 10.9823C82.2278 11.3248 81.7741 11.8151 81.4355 12.4533C81.112 13.076 80.9582 13.7999 80.9737 14.625C80.9582 15.4345 81.112 16.1584 81.4355 16.7966C81.7741 17.4193 82.2278 17.9098 82.7973 18.2678C83.3821 18.6259 84.0286 18.8049 84.7363 18.8049C85.4445 18.8049 86.0829 18.6259 86.6524 18.2678C87.222 17.9098 87.668 17.4193 87.9915 16.7966C88.3297 16.1584 88.4916 15.4345 88.4759 14.625Z" fill="#EFEFEF"/>
<path d="M98.6777 10.611H95.7755V20.9996H93.3412V10.611H91.375V8.24993H93.3412V7.56548C93.3412 6.5227 93.6764 5.67158 94.3477 5.01211C95.0339 4.33737 95.9156 4 96.9924 4C97.6166 4 98.1315 4.11505 98.5371 4.345C98.9584 4.5751 99.2629 4.79742 99.4501 5.01211L98.6307 6.8294C98.4749 6.67605 98.2721 6.53811 98.0222 6.41543C97.7728 6.27734 97.523 6.20837 97.2732 6.20837C96.7117 6.20837 96.3213 6.33868 96.1032 6.59945C95.8847 6.86007 95.7755 7.18218 95.7755 7.56548V8.24993H98.6777V10.611Z" fill="#EFEFEF"/>
<path d="M66.1352 19.1585H66.1114C65.6107 19.6402 64.9225 20.0675 64.0462 20.4405C63.1703 20.8134 62.255 20.9998 61.3007 20.9998C60.0176 20.9998 58.8834 20.7357 57.8978 20.2074C56.9277 19.6635 56.1688 18.9253 55.621 17.993C55.0733 17.0452 54.7998 15.973 54.7998 14.7764C54.7998 13.4091 55.089 12.2436 55.6681 11.2802C56.2471 10.3013 57.0138 9.55548 57.9681 9.04256C58.9223 8.51423 59.963 8.25014 61.0892 8.25014C62.122 8.25014 63.0606 8.5066 63.9056 9.01938C64.7506 9.51662 65.4231 10.208 65.9238 11.0937C66.4245 11.9795 66.6748 13.0129 66.6748 14.1937L66.6515 15.2194H57.2171C57.3577 16.3227 57.8118 17.2006 58.5785 17.8533C59.3602 18.4903 60.3464 18.8089 61.5353 18.8089C62.3955 18.8089 63.0919 18.6535 63.6238 18.3426C64.1559 18.0164 64.5938 17.7056 64.9382 17.4103L66.1352 19.1585ZM61.0892 10.4645C60.1663 10.4645 59.3602 10.6819 58.6719 11.117C57.9837 11.5367 57.5301 12.2669 57.3111 13.308H64.2105V13.1448C64.1635 12.6166 63.9839 12.1504 63.671 11.7464C63.3735 11.3424 62.9983 11.0317 62.5442 10.8141C62.0905 10.5809 61.6056 10.4645 61.0892 10.4645Z" fill="#EFEFEF"/>
<path d="M76.1165 11.7294C75.6695 11.2935 75.1589 10.9355 74.5846 10.6553C74.0266 10.3751 73.5078 10.2349 73.0295 10.2349C72.6946 10.2349 72.3592 10.2739 72.0244 10.3516C71.7051 10.4296 71.4339 10.5774 71.2107 10.7955C70.9874 10.9978 70.8759 11.3013 70.8759 11.7061C70.8914 12.2665 71.1471 12.6636 71.6415 12.897C72.1521 13.1305 72.782 13.3406 73.532 13.5274C74.1861 13.6987 74.824 13.9167 75.4462 14.1814C76.0686 14.4303 76.5791 14.8041 76.9777 15.3021C77.3924 15.7848 77.6 16.4697 77.6 17.357C77.6 18.1199 77.3767 18.7737 76.9297 19.3186C76.4994 19.8635 75.9327 20.2837 75.2311 20.5796C74.5448 20.8598 73.819 20.9998 73.0532 20.9998C72.144 20.9998 71.2426 20.8442 70.3495 20.5328C69.4717 20.206 68.7222 19.6532 68.0999 18.875L69.7748 17.4739C70.2056 17.9564 70.6925 18.3378 71.2344 18.618C71.793 18.8827 72.4709 19.015 73.2689 19.015C73.572 19.015 73.875 18.9684 74.1781 18.875C74.4811 18.7659 74.7361 18.6025 74.9437 18.3845C75.167 18.151 75.2786 17.8397 75.2786 17.4504C75.2786 17.0768 75.1589 16.7889 74.92 16.5865C74.6963 16.3685 74.3933 16.1972 74.0103 16.0728C73.6275 15.9326 73.2047 15.8081 72.7421 15.6992C72.0563 15.5124 71.3784 15.2866 70.7082 15.0219C70.054 14.7417 69.504 14.3526 69.0571 13.8544C68.6262 13.3406 68.411 12.648 68.411 11.7762C68.411 11.0444 68.6186 10.4217 69.0333 9.90812C69.4642 9.37882 70.0222 8.974 70.7082 8.69381C71.3941 8.39807 72.1279 8.25014 72.9098 8.25014C73.6593 8.25014 74.473 8.40585 75.3504 8.71713C76.2281 9.02854 76.954 9.52661 77.5282 10.2116L76.1165 11.7294Z" fill="#EFEFEF"/>
<path d="M37.2246 20.9998H39.5997V8.25014H37.2246V20.9998Z" fill="#EFEFEF"/>
<path d="M44.1905 8.25014L47.8995 17.357L51.7546 8.25014H54.3244L48.6756 20.9998H46.8815L41.4993 8.25014H44.1905Z" fill="#EFEFEF"/>
<path d="M39.8373 5.41664C39.8373 6.19907 39.1994 6.83329 38.4123 6.83329C37.6252 6.83329 36.9873 6.19907 36.9873 5.41664C36.9873 4.63421 37.6252 4 38.4123 4C39.1994 4 39.8373 4.63421 39.8373 5.41664Z" fill="#EFEFEF"/>
<path d="M32 20.9996V4H34.3749V20.9996H32Z" fill="#EFEFEF"/>
<path d="M23.9129 1.73722C24.3033 0.705076 23.3123 -0.311002 22.3054 0.0892767C14.899 3.03347 8.58909 7.77353 3.16914 13.6668C3.05814 13.7875 2.99153 13.9441 2.98073 14.1096V19.0909L17.3333 6.33327L0 24H1.94553L3.75126 21.9921H9.42838C9.79261 21.9921 10.0642 21.9406 10.6691 21.3558C16.4174 15.7993 21.0411 9.33037 23.9129 1.73722Z" fill="#5376F1"/>
</g>
<defs>
<clipPath id="clip0_99_187">
<rect width="108" height="24" fill="white"/>
</clipPath>
</defs>
</svg>
